<?xml version="1.0" encoding="UTF-8" standalone="no"?><!DOCTYPE svg PUBLIC "-//W3C//DTD SVG 1.1//EN" "http://www.w3.org/Graphics/SVG/1.1/DTD/svg11.dtd"><svg width="100%" height="100%" viewBox="0 0 2484 1024" version="1.1" xmlns="http://www.w3.org/2000/svg" xmlns:xlink="http://www.w3.org/1999/xlink" xml:space="preserve" xmlns:serif="http://www.serif.com/" style="fill-rule:evenodd;clip-rule:evenodd;stroke-linecap:round;stroke-linejoin:round;stroke-miterlimit:1.5;"><g><path d="M652.074,481.471c116.904,-135.089 229.895,-262.161 357.457,-416.747" style="fill:none;stroke:#000;stroke-width:20.83px;"/><path d="M656.78,478.546c-105.6,-126.883 -218.239,-275.11 -340.455,-420.129" style="fill:none;stroke:#000;stroke-width:20.83px;"/><path d="M637.974,483.506c-225.017,-176.088 -452.595,-329.296 -627.557,-454.532" style="fill:none;stroke:#000;stroke-width:20.83px;"/><path d="M649.715,485.56c219.682,-107.53 616.955,-340.175 850.409,-475.143" style="fill:none;stroke:#000;stroke-width:20.83px;"/><g transform="matrix(489.807,0,0,489.807,2502.63,818.278)"></g><text x="-2.13px" y="818.278px" style="font-family:'ArialMT', 'Arial', sans-serif;font-size:489.807px;">SpiderBoss</text><g transform="matrix(121.952,0,0,121.952,2133.24,999.413)"></g><text x="879.184px" y="999.413px" style="font-family:'ArialMT', 'Arial', sans-serif;font-size:121.952px;">Cable-suspended CNC</text><path d="M874.709,401.095c0,-21.851 -17.74,-39.592 -39.592,-39.592l-323.89,0c-21.852,0 -39.592,17.741 -39.592,39.592l-0,79.183c-0,21.852 17.74,39.592 39.592,39.592l323.89,0c21.852,0 39.592,-17.74 39.592,-39.592l0,-79.183Z" style="fill:#88d98d;stroke:#000;stroke-width:20.83px;"/></g></svg>